<svg width="122" height="82" viewBox="0 0 122 82" fill="none" xmlns="http://www.w3.org/2000/svg">
<path d="M0.759674 7.99817C0.759674 3.73246 4.21772 0.274414 8.48343 0.274414H113.398C117.663 0.274414 121.122 3.73246 121.122 7.99817V73.6501C121.122 77.9158 117.663 81.3738 113.398 81.3738H8.48343C4.21772 81.3738 0.759674 77.9158 0.759674 73.6501V7.99817Z" fill="#252F3C"/>
<mask id="mask0_2_181" style="mask-type:alpha" maskUnits="userSpaceOnUse" x="0" y="0" width="122" height="82">
<path d="M0.759674 7.99817C0.759674 3.73246 4.21772 0.274414 8.48343 0.274414H113.398C117.663 0.274414 121.122 3.73246 121.122 7.99817V73.6501C121.122 77.9158 117.663 81.3738 113.398 81.3738H8.48343C4.21772 81.3738 0.759674 77.9158 0.759674 73.6501V7.99817Z" fill="#252F3C"/>
</mask>
<g mask="url(#mask0_2_181)">
<path d="M18.1387 88.7753L105.353 -2.6225V-6.48438H-17.2618V88.7753H18.1387Z" fill="#303A46"/>
</g>
<path d="M100.112 55.3792C91.3512 61.8368 78.6525 65.2822 67.7192 65.2822C52.3889 65.2822 38.5877 59.6121 28.1465 50.1816C27.3262 49.44 28.0612 48.4294 29.0456 49.0069C40.3136 55.563 54.2461 59.5071 68.6379 59.5071C78.3441 59.5071 89.0214 57.4989 98.8391 53.3317C100.322 52.7017 101.563 54.3029 100.112 55.3792Z" fill="#FF9900"/>
<path d="M103.754 51.2125C102.639 49.7819 96.3516 50.5366 93.5297 50.8713C92.6699 50.9763 92.5387 50.2281 93.3131 49.69C98.3204 46.1659 106.537 47.1831 107.495 48.3644C108.453 49.5522 107.246 57.7883 102.54 61.7193C101.818 62.3231 101.129 62.0015 101.451 61.2009C102.507 58.5627 104.876 52.6498 103.754 51.2125Z" fill="#FF9900"/>
<g clip-path="url(#clip0_2_181)">
<path d="M33.1694 18.4778C31.04 20.0287 27.9535 20.8562 25.296 20.8562C21.5699 20.8562 18.2154 19.4944 15.6777 17.2294C15.4783 17.0513 15.6569 16.8086 15.8962 16.9473C18.635 18.5219 22.0213 19.4692 25.5194 19.4692C27.8785 19.4692 30.4737 18.9869 32.86 17.986C33.2204 17.8347 33.5219 18.2193 33.1694 18.4778Z" fill="#FF9900"/>
<path d="M34.0546 17.4774C33.7834 17.1338 32.2553 17.3151 31.5694 17.3955C31.3605 17.4207 31.3286 17.241 31.5168 17.1118C32.7338 16.2654 34.7309 16.5097 34.9638 16.7934C35.1967 17.0787 34.9032 19.0568 33.7595 20.0009C33.584 20.1459 33.4165 20.0687 33.4947 19.8764C33.7515 19.2428 34.3273 17.8226 34.0546 17.4774Z" fill="#FF9900"/>
<path d="M31.6173 11.1363V10.3135C31.6173 10.189 31.713 10.1055 31.8279 10.1055H35.5556C35.6752 10.1055 35.7709 10.1906 35.7709 10.3135V11.0181C35.7694 11.1363 35.6689 11.2908 35.4902 11.5351L33.5586 14.2603C34.2763 14.2429 35.034 14.3485 35.6848 14.7111C35.8316 14.793 35.8714 14.9128 35.8826 15.031V15.909C35.8826 16.0287 35.7486 16.169 35.6082 16.0965C34.4614 15.5023 32.9381 15.4377 31.67 16.1028C31.5408 16.1722 31.4052 16.0335 31.4052 15.9137V15.0799C31.4052 14.9459 31.4068 14.7174 31.5424 14.514L33.7803 11.3428H31.8327C31.713 11.3428 31.6173 11.2592 31.6173 11.1363Z" fill="white"/>
<path d="M18.0192 16.27H16.8851C16.7766 16.2622 16.6905 16.1818 16.6825 16.0793V10.3278C16.6825 10.2128 16.7798 10.1214 16.9011 10.1214H17.9586C18.0687 10.1261 18.1564 10.2096 18.1644 10.3137V11.0655H18.1851C18.4611 10.3389 18.9795 10 19.6781 10C20.3879 10 20.8314 10.3389 21.1504 11.0655C21.4247 10.3389 22.0484 10 22.7167 10C23.1921 10 23.7121 10.1939 24.0295 10.6289C24.3884 11.1128 24.315 11.8158 24.315 12.432L24.3134 16.062C24.3134 16.177 24.2161 16.27 24.0949 16.27H22.9624C22.8491 16.2622 22.7582 16.1723 22.7582 16.062V13.0137C22.7582 12.7709 22.7806 12.1657 22.7263 11.9355C22.6418 11.5494 22.3882 11.4406 22.0596 11.4406C21.7852 11.4406 21.4981 11.6219 21.3817 11.9119C21.2652 12.2019 21.2764 12.6874 21.2764 13.0137V16.062C21.2764 16.177 21.1791 16.27 21.0579 16.27H19.9253C19.8105 16.2622 19.7212 16.1723 19.7212 16.062L19.7196 13.0137C19.7196 12.3721 19.8264 11.428 19.0209 11.428C18.2058 11.428 18.2377 12.3485 18.2377 13.0137V16.062C18.2377 16.177 18.1404 16.27 18.0192 16.27Z" fill="white"/>
<path d="M38.9798 10C40.6626 10 41.5734 11.428 41.5734 13.2438C41.5734 14.9981 40.5669 16.3898 38.9798 16.3898C37.3273 16.3898 36.4276 14.9618 36.4276 13.1823C36.4276 11.3918 37.3384 10 38.9798 10ZM38.9894 11.1743C38.1535 11.1743 38.1009 12.2996 38.1009 13.001C38.1009 13.704 38.0897 15.2045 38.9798 15.2045C39.8587 15.2045 39.9002 13.994 39.9002 13.2564C39.9002 12.7709 39.8794 12.1909 39.7311 11.7306C39.6035 11.3303 39.3499 11.1743 38.9894 11.1743Z" fill="white"/>
<path d="M43.7559 16.27H42.6266C42.5133 16.2622 42.4224 16.1723 42.4224 16.062L42.4208 10.3089C42.4304 10.2033 42.5245 10.1214 42.6393 10.1214H43.6905C43.7894 10.1261 43.8707 10.1923 43.8931 10.2821V11.1616H43.9138C44.2312 10.3751 44.6763 10 45.4595 10C45.9683 10 46.4644 10.1813 46.7834 10.6778C47.0801 11.138 47.0801 11.9119 47.0801 12.4683V16.0888C47.0673 16.1896 46.9732 16.27 46.8615 16.27H45.7242C45.6206 16.2622 45.5344 16.1865 45.5233 16.0888V12.9648C45.5233 12.3359 45.5966 11.4154 44.8134 11.4154C44.5375 11.4154 44.2839 11.5982 44.1579 11.8757C43.9984 12.2271 43.9776 12.5771 43.9776 12.9648V16.062C43.976 16.177 43.8771 16.27 43.7559 16.27Z" fill="white"/>
<path d="M13.7772 13.5232V13.2805C12.9573 13.2805 12.0912 13.4539 12.0912 14.409C12.0912 14.8929 12.3448 15.2208 12.7802 15.2208C13.0993 15.2208 13.3848 15.0269 13.565 14.7117C13.7883 14.3239 13.7772 13.9598 13.7772 13.5232ZM14.9208 16.2548C14.8459 16.321 14.7374 16.3257 14.6529 16.2815C14.2764 15.9726 14.2094 15.8292 14.0021 15.5344C13.38 16.1618 12.9397 16.3493 12.1326 16.3493C11.1788 16.3493 10.4355 15.7677 10.4355 14.6029C10.4355 13.6935 10.9347 13.074 11.6445 12.7714C12.2602 12.5034 13.12 12.4562 13.7772 12.3821V12.2371C13.7772 11.9707 13.7979 11.6555 13.64 11.4253C13.5012 11.2189 13.2364 11.1338 13.0035 11.1338C12.5713 11.1338 12.1853 11.3528 12.0912 11.8068C12.072 11.9077 11.997 12.007 11.895 12.0117L10.7944 11.895C10.7018 11.8746 10.5997 11.8005 10.6253 11.6602C10.8789 10.3425 12.0832 9.94531 13.1615 9.94531C13.7134 9.94531 14.4343 10.0903 14.8698 10.5033C15.4217 11.0124 15.3691 11.6917 15.3691 12.4309V14.1773C15.3691 14.7022 15.5892 14.9323 15.7966 15.2161C15.8699 15.3169 15.8859 15.4383 15.7934 15.5139C15.5621 15.7047 15.1505 16.0593 14.924 16.2579L14.9208 16.2547" fill="white"/>
<path d="M28.5018 13.5232V13.2805C27.6819 13.2805 26.8158 13.4539 26.8158 14.409C26.8158 14.8929 27.0694 15.2208 27.5048 15.2208C27.8239 15.2208 28.1094 15.0269 28.2896 14.7117C28.5129 14.3239 28.5018 13.9598 28.5018 13.5232ZM29.6455 16.2548C29.5705 16.321 29.462 16.3257 29.3775 16.2815C29.001 15.9726 28.934 15.8292 28.7267 15.5344C28.1046 16.1618 27.6644 16.3493 26.8572 16.3493C25.9034 16.3493 25.1601 15.7677 25.1601 14.6029C25.1601 13.6935 25.6593 13.074 26.3691 12.7714C26.9848 12.5034 27.8446 12.4562 28.5018 12.3821V12.2371C28.5018 11.9707 28.5225 11.6555 28.3646 11.4253C28.2258 11.2189 27.961 11.1338 27.7282 11.1338C27.2959 11.1338 26.9099 11.3528 26.8158 11.8068C26.7966 11.9077 26.7217 12.007 26.6196 12.0117L25.519 11.895C25.4264 11.8746 25.3244 11.8005 25.3499 11.6602C25.6035 10.3425 26.8078 9.94531 27.8861 9.94531C28.438 9.94531 29.159 10.0903 29.5944 10.5033C30.1463 11.0124 30.0937 11.6917 30.0937 12.4309V14.1773C30.0937 14.7022 30.3138 14.9323 30.5212 15.2161C30.5945 15.3169 30.6105 15.4383 30.518 15.5139C30.2867 15.7047 29.8752 16.0593 29.6486 16.2579L29.6455 16.2547" fill="white"/>
</g>
<path d="M39.3231 19.573C39.7416 19.573 40.1058 19.6708 40.4156 19.8665C40.7254 20.0622 40.9483 20.3095 41.0841 20.6084V19.6382H41.6548V24.2038C41.6548 24.6115 41.5651 24.9729 41.3858 25.2881C41.2119 25.6034 40.9673 25.8453 40.652 26.0138C40.3368 26.1877 39.9781 26.2746 39.5759 26.2746C39.0052 26.2746 38.5296 26.1388 38.1491 25.867C37.7741 25.5952 37.5404 25.2256 37.448 24.7582H38.0105C38.1083 25.068 38.2931 25.3153 38.5649 25.5001C38.8421 25.6849 39.1791 25.7773 39.5759 25.7773C39.8639 25.7773 40.1221 25.7148 40.3504 25.5898C40.5787 25.4702 40.758 25.2909 40.8885 25.0517C41.0189 24.8126 41.0841 24.5299 41.0841 24.2038V23.1032C40.9428 23.4076 40.7173 23.6603 40.4074 23.8614C40.1031 24.0571 39.7416 24.1549 39.3231 24.1549C38.9155 24.1549 38.5486 24.0598 38.2225 23.8695C37.9018 23.6793 37.6491 23.4103 37.4643 23.0624C37.2849 22.7146 37.1952 22.3124 37.1952 21.8558C37.1952 21.3992 37.2849 20.9997 37.4643 20.6573C37.6491 20.3095 37.9018 20.0431 38.2225 19.8583C38.5486 19.6681 38.9155 19.573 39.3231 19.573ZM41.0841 21.8639C41.0841 21.5052 41.0108 21.19 40.864 20.9182C40.7173 20.6465 40.5161 20.4372 40.2607 20.2904C40.0107 20.1437 39.7335 20.0703 39.4291 20.0703C39.1139 20.0703 38.8312 20.141 38.5812 20.2823C38.3312 20.4236 38.1328 20.6302 37.986 20.9019C37.8447 21.1682 37.7741 21.4862 37.7741 21.8558C37.7741 22.22 37.8447 22.5406 37.986 22.8178C38.1328 23.0896 38.3312 23.2989 38.5812 23.4456C38.8312 23.5869 39.1139 23.6576 39.4291 23.6576C39.7335 23.6576 40.0107 23.5842 40.2607 23.4374C40.5161 23.2907 40.7173 23.0814 40.864 22.8097C41.0108 22.5379 41.0841 22.2227 41.0841 21.8639Z" fill="#F8981D"/>
<path d="M42.9169 18.7985C42.8028 18.7985 42.705 18.7577 42.6234 18.6762C42.5419 18.5947 42.5011 18.4941 42.5011 18.3745C42.5011 18.255 42.5419 18.1571 42.6234 18.081C42.705 17.9995 42.8028 17.9587 42.9169 17.9587C43.0311 17.9587 43.1289 17.9995 43.2104 18.081C43.292 18.1571 43.3327 18.255 43.3327 18.3745C43.3327 18.4941 43.292 18.5947 43.2104 18.6762C43.1289 18.7577 43.0311 18.7985 42.9169 18.7985ZM43.2023 19.6382V24.0897H42.6316V19.6382H43.2023Z" fill="#F8981D"/>
<path d="M45.9214 20.1192H44.886V24.0897H44.3153V20.1192H43.6957V19.6382H44.3153V19.3284C44.3153 18.8447 44.4376 18.4887 44.6822 18.2604C44.9322 18.0321 45.3344 17.918 45.8888 17.918V18.4071C45.5192 18.4071 45.2583 18.4778 45.1061 18.6191C44.9593 18.7604 44.886 18.9969 44.886 19.3284V19.6382H45.9214V20.1192Z" fill="#F8981D"/>
<path d="M47.2356 20.1192V22.8831C47.2356 23.1548 47.2872 23.3423 47.3905 23.4456C47.4938 23.5489 47.6758 23.6005 47.9367 23.6005H48.4585V24.0897H47.847C47.4448 24.0897 47.1459 23.9973 46.9502 23.8125C46.7546 23.6222 46.6567 23.3124 46.6567 22.8831V20.1192H46.0371V19.6382H46.6567V18.5213H47.2356V19.6382H48.4585V20.1192H47.2356Z" fill="#F8981D"/>
<path d="M50.7239 21.8639C50.7239 21.402 50.8163 20.9997 51.0011 20.6573C51.1859 20.3095 51.4413 20.0431 51.7674 19.8583C52.0935 19.6681 52.4659 19.573 52.8844 19.573C53.4333 19.573 53.8844 19.7089 54.2377 19.9806C54.5965 20.2524 54.8275 20.622 54.9307 21.0894H54.3193C54.2432 20.7687 54.0774 20.5187 53.8219 20.3394C53.5719 20.1546 53.2594 20.0622 52.8844 20.0622C52.5854 20.0622 52.3164 20.1301 52.0772 20.266C51.8381 20.4019 51.6478 20.6057 51.5065 20.8775C51.3707 21.1438 51.3027 21.4726 51.3027 21.8639C51.3027 22.2553 51.3707 22.5868 51.5065 22.8586C51.6478 23.1304 51.8381 23.3342 52.0772 23.4701C52.3164 23.6059 52.5854 23.6739 52.8844 23.6739C53.2594 23.6739 53.5719 23.5842 53.8219 23.4048C54.0774 23.22 54.2432 22.9646 54.3193 22.6385H54.9307C54.8275 23.095 54.5965 23.4619 54.2377 23.7391C53.879 24.0163 53.4279 24.1549 52.8844 24.1549C52.4659 24.1549 52.0935 24.0625 51.7674 23.8777C51.4413 23.6875 51.1859 23.4211 51.0011 23.0787C50.8163 22.7309 50.7239 22.3259 50.7239 21.8639Z" fill="#F8981D"/>
<path d="M55.3977 21.8558C55.3977 21.3992 55.4874 20.9997 55.6668 20.6573C55.8516 20.3095 56.1043 20.0431 56.425 19.8583C56.7511 19.6681 57.118 19.573 57.5256 19.573C57.9496 19.573 58.3137 19.6708 58.6181 19.8665C58.9279 20.0622 59.1508 20.3122 59.2866 20.6166V19.6382H59.8573V24.0897H59.2866V23.1032C59.1453 23.4076 58.9198 23.6603 58.61 23.8614C58.3056 24.0571 57.9414 24.1549 57.5175 24.1549C57.1153 24.1549 56.7511 24.0598 56.425 23.8695C56.1043 23.6793 55.8516 23.4103 55.6668 23.0624C55.4874 22.7146 55.3977 22.3124 55.3977 21.8558ZM59.2866 21.8639C59.2866 21.5052 59.2133 21.19 59.0665 20.9182C58.9198 20.6465 58.7187 20.4372 58.4632 20.2904C58.2132 20.1437 57.936 20.0703 57.6316 20.0703C57.3164 20.0703 57.0337 20.141 56.7837 20.2823C56.5337 20.4236 56.3353 20.6302 56.1886 20.9019C56.0472 21.1682 55.9766 21.4862 55.9766 21.8558C55.9766 22.22 56.0472 22.5406 56.1886 22.8178C56.3353 23.0896 56.5337 23.2989 56.7837 23.4456C57.0337 23.5869 57.3164 23.6576 57.6316 23.6576C57.936 23.6576 58.2132 23.5842 58.4632 23.4374C58.7187 23.2907 58.9198 23.0814 59.0665 22.8097C59.2133 22.5379 59.2866 22.2227 59.2866 21.8639Z" fill="#F8981D"/>
<path d="M61.4048 20.429C61.5298 20.1519 61.72 19.9372 61.9755 19.785C62.2364 19.6328 62.5543 19.5567 62.9294 19.5567V20.1518H62.7745C62.3614 20.1518 62.0298 20.2633 61.7798 20.4861C61.5298 20.709 61.4048 21.0813 61.4048 21.6031V24.0897H60.8341V19.6382H61.4048V20.429Z" fill="#F8981D"/>
<path d="M63.2009 21.8558C63.2009 21.3992 63.2933 20.9997 63.4781 20.6573C63.6629 20.3095 63.9156 20.0431 64.2363 19.8583C64.5624 19.6681 64.9293 19.573 65.337 19.573C65.7283 19.573 66.0816 19.6681 66.3968 19.8583C66.7121 20.0486 66.9431 20.2959 67.0898 20.6003V18.0566H67.6605V24.0897H67.0898V23.095C66.9539 23.4048 66.7311 23.6603 66.4213 23.8614C66.1115 24.0571 65.7473 24.1549 65.3288 24.1549C64.9212 24.1549 64.5543 24.0598 64.2282 23.8695C63.9075 23.6793 63.6547 23.4103 63.4699 23.0624C63.2906 22.7146 63.2009 22.3124 63.2009 21.8558ZM67.0898 21.8639C67.0898 21.5052 67.0164 21.19 66.8697 20.9182C66.7229 20.6465 66.5218 20.4372 66.2664 20.2904C66.0164 20.1437 65.7392 20.0703 65.4348 20.0703C65.1195 20.0703 64.8369 20.141 64.5869 20.2823C64.3369 20.4236 64.1385 20.6302 63.9917 20.9019C63.8504 21.1682 63.7798 21.4862 63.7798 21.8558C63.7798 22.22 63.8504 22.5406 63.9917 22.8178C64.1385 23.0896 64.3369 23.2989 64.5869 23.4456C64.8369 23.5869 65.1195 23.6576 65.4348 23.6576C65.7392 23.6576 66.0164 23.5842 66.2664 23.4374C66.5218 23.2907 66.7229 23.0814 66.8697 22.8097C67.0164 22.5379 67.0898 22.2227 67.0898 21.8639Z" fill="#F8981D"/>
<defs>
<clipPath id="clip0_2_181">
<rect width="36.6878" height="10.942" fill="white" transform="translate(10.414 9.92969)"/>
</clipPath>
</defs>
</svg>
