<svg width="91" height="62" viewBox="0 0 91 62" fill="none" xmlns="http://www.w3.org/2000/svg">
<path d="M0.197266 6.0975C0.197266 2.89822 2.7908 0.304688 5.99008 0.304688H84.6758C87.8751 0.304688 90.4686 2.89822 90.4686 6.0975V55.3364C90.4686 58.5357 87.8751 61.1292 84.6758 61.1292H5.99008C2.7908 61.1292 0.197266 58.5357 0.197266 55.3364V6.0975Z" fill="#00318C"/>
<path fill-rule="evenodd" clip-rule="evenodd" d="M14.2834 26.3301H19.424C22.1841 26.3301 23.2231 27.7283 23.0625 29.7824C22.7972 33.1736 20.7483 35.0497 18.0307 35.0497H16.6587C16.2858 35.0497 16.035 35.2967 15.9342 35.9659L15.3516 39.8564C15.3131 40.1087 15.1804 40.2547 14.9814 40.2746H11.7516C11.4477 40.2746 11.3402 40.0423 11.4199 39.539L13.3891 27.067C13.466 26.5678 13.7394 26.3301 14.2834 26.3301Z" fill="#A9BDDB"/>
<path fill-rule="evenodd" clip-rule="evenodd" d="M36.6023 26.0986C38.3366 26.0986 39.9369 27.04 39.718 29.3863C39.4526 32.1746 37.9597 33.7176 35.6044 33.7242H33.5463C33.2504 33.7242 33.1071 33.9658 33.0301 34.4611L32.632 36.9932C32.5723 37.3756 32.3759 37.5642 32.0866 37.5642H30.1719C29.8667 37.5642 29.7605 37.369 29.8282 36.9322L31.4086 26.7838C31.4869 26.2845 31.674 26.0986 32.015 26.0986H36.5983H36.6023ZM33.4839 31.532H35.0431C36.0184 31.4948 36.666 30.819 36.731 29.6C36.7708 28.8472 36.2626 28.3081 35.4545 28.3121L33.9868 28.3187L33.4839 31.532ZM44.9236 36.7874C45.0988 36.6281 45.2766 36.5458 45.2514 36.7423L45.189 37.2123C45.1571 37.458 45.254 37.5881 45.4822 37.5881H47.1834C47.47 37.5881 47.6094 37.4726 47.6797 37.0291L48.728 30.4459C48.7811 30.1152 48.7001 29.9532 48.4493 29.9532H46.5783C46.4098 29.9532 46.3275 30.0475 46.2837 30.3051L46.2147 30.7101C46.1789 30.9212 46.082 30.9584 45.9918 30.7459C45.6747 29.9944 44.8652 29.6571 43.736 29.6837C41.1126 29.7381 39.3438 31.7312 39.154 34.2859C39.008 36.2616 40.4226 37.8138 42.2883 37.8138C43.6418 37.8138 44.2469 37.4155 44.9289 36.7914L44.9236 36.7874ZM43.4985 35.7743C42.3692 35.7743 41.5823 34.8727 41.7455 33.768C41.9088 32.6633 42.965 31.7617 44.0943 31.7617C45.2235 31.7617 46.0104 32.6633 45.8472 33.768C45.6839 34.8727 44.629 35.7743 43.4985 35.7743ZM52.0573 29.932H50.3323C49.9766 29.932 49.832 30.1976 49.9448 30.5242L52.0865 36.7994L49.9859 39.7856C49.8094 40.0352 49.9461 40.2623 50.1943 40.2623H52.1329C52.2459 40.2754 52.3603 40.2556 52.4624 40.2055C52.5645 40.1554 52.65 40.0769 52.7088 39.9795L59.2958 30.5255C59.4989 30.2347 59.4033 29.9293 59.0703 29.9293H57.2351C56.9206 29.9293 56.7945 30.0542 56.6141 30.3157L53.8673 34.2991L52.6398 30.3064C52.5682 30.0648 52.389 29.932 52.0586 29.932H52.0573Z" fill="white"/>
<path fill-rule="evenodd" clip-rule="evenodd" d="M66.1478 26.0984C67.8821 26.0984 69.4825 27.0398 69.2635 29.386C68.9981 32.1744 67.5053 33.7173 65.15 33.7239H63.0932C62.7973 33.7239 62.654 33.9656 62.577 34.4608L62.1789 36.993C62.1192 37.3754 61.9228 37.5639 61.6335 37.5639H59.7187C59.4135 37.5639 59.3074 37.3687 59.375 36.9319L60.9581 26.7808C61.0364 26.2816 61.2235 26.0957 61.5645 26.0957H66.1478V26.0984ZM63.0295 31.5317H64.5886C65.564 31.4945 66.2115 30.8187 66.2765 29.5998C66.3163 28.8469 65.8081 28.3078 65 28.3118L63.5324 28.3184L63.0295 31.5317ZM74.4692 36.7872C74.6443 36.6278 74.8221 36.5455 74.7969 36.742L74.7345 37.212C74.7027 37.4577 74.7996 37.5878 75.0278 37.5878H76.729C77.0156 37.5878 77.1549 37.4723 77.2252 37.0288L78.2735 30.4456C78.3266 30.115 78.2457 29.953 77.9949 29.953H76.1265C75.958 29.953 75.8757 30.0472 75.8319 30.3048L75.7629 30.7098C75.7271 30.9209 75.6302 30.9581 75.54 30.7457C75.2229 29.9941 74.4134 29.6569 73.2842 29.6834C70.6608 29.7379 68.892 31.7309 68.7022 34.2856C68.5562 36.2613 69.9708 37.8135 71.8365 37.8135C73.19 37.8135 73.7951 37.4152 74.4771 36.7911L74.4692 36.7872ZM73.0453 35.774C71.9161 35.774 71.1292 34.8725 71.2924 33.7677C71.4556 32.663 72.5119 31.7614 73.6411 31.7614C74.7704 31.7614 75.5573 32.663 75.394 33.7677C75.2308 34.8725 74.1746 35.774 73.0453 35.774ZM80.8916 37.5984H78.9277C78.8936 37.6 78.8595 37.5939 78.8279 37.5808C78.7964 37.5676 78.7681 37.5476 78.7452 37.5222C78.7222 37.4969 78.7052 37.4667 78.6952 37.434C78.6852 37.4013 78.6826 37.3667 78.6875 37.3329L80.4126 26.3971C80.429 26.3225 80.4703 26.2556 80.5295 26.2074C80.5888 26.1592 80.6626 26.1325 80.739 26.1316H82.7029C82.7371 26.13 82.7711 26.1361 82.8027 26.1492C82.8342 26.1624 82.8625 26.1824 82.8855 26.2078C82.9084 26.2331 82.9255 26.2633 82.9354 26.296C82.9454 26.3287 82.948 26.3633 82.9431 26.3971L81.218 37.3329C81.2021 37.408 81.1611 37.4755 81.1018 37.5242C81.0425 37.5729 80.9684 37.6001 80.8916 37.6011V37.5984Z" fill="#009EE3"/>
<path fill-rule="evenodd" clip-rule="evenodd" d="M11.0687 22.0361H16.2147C17.6637 22.0361 19.3834 22.0826 20.5326 23.0984C21.3009 23.7769 21.7043 24.8564 21.6114 26.0195C21.2956 29.9511 18.9455 32.154 15.7927 32.154H13.2556C12.823 32.154 12.5377 32.4408 12.4156 33.2162L11.707 37.7307C11.6606 38.0228 11.5345 38.1955 11.3089 38.2167H8.13351C7.78187 38.2167 7.65714 37.9511 7.7487 37.3643L10.0311 22.8939C10.1226 22.3123 10.4424 22.0361 11.0687 22.0361Z" fill="white"/>
<path fill-rule="evenodd" clip-rule="evenodd" d="M12.4902 32.7587L13.3886 27.0664C13.4669 26.5671 13.7402 26.3281 14.2843 26.3281H19.4249C20.2755 26.3281 20.9642 26.4609 21.5029 26.7065C20.9867 30.2066 18.7243 32.1505 15.7625 32.1505H13.2293C12.8896 32.1519 12.6402 32.3218 12.4902 32.7587Z" fill="#E5EBF4"/>
</svg>
