<svg width="189" height="47" viewBox="0 0 189 47" fill="none" xmlns="http://www.w3.org/2000/svg">
<path d="M49.676 16.4434H68.7965V20.0029H61.268V40.0684H57.1415V20.0029H49.6445L49.676 16.4434ZM67.9775 22.9639H71.5055V26.2714H71.5685C71.6945 25.7989 71.915 25.3579 72.23 24.9169C72.545 24.4759 72.923 24.0664 73.3955 23.7199C73.8365 23.3419 74.3405 23.0584 74.9075 22.8379C75.443 22.6174 76.01 22.4914 76.577 22.4914C77.018 22.4914 77.333 22.5229 77.4905 22.5229C77.648 22.5544 77.837 22.5859 77.9945 22.5859V26.2084C77.7425 26.1454 77.459 26.1139 77.1755 26.0824C76.892 26.0509 76.64 26.0194 76.3565 26.0194C75.7265 26.0194 75.128 26.1454 74.561 26.3974C73.994 26.6494 73.5215 27.0274 73.0805 27.4999C72.671 28.0039 72.3245 28.6024 72.0725 29.3269C71.8205 30.0514 71.6945 30.9019 71.6945 31.8469V39.9739H67.9145L67.9775 22.9639ZM95.3195 40.0684H91.6025V37.6744H91.5395C91.067 38.5564 90.374 39.2179 89.4605 39.7534C88.547 40.2889 87.602 40.5409 86.657 40.5409C84.4205 40.5409 82.7825 40.0054 81.7745 38.8714C80.7665 37.7689 80.2625 36.0679 80.2625 33.8314V22.9639H84.0425V33.4534C84.0425 34.9654 84.326 36.0364 84.9245 36.6349C85.4915 37.2649 86.3105 37.5799 87.35 37.5799C88.1375 37.5799 88.799 37.4539 89.3345 37.2019C89.87 36.9499 90.311 36.6349 90.626 36.2254C90.9725 35.8159 91.193 35.3119 91.3505 34.7449C91.508 34.1779 91.571 33.5479 91.571 32.8864V22.9639H95.351V40.0684H95.3195ZM101.746 34.5874C101.872 35.6899 102.281 36.4459 103.006 36.9184C103.73 37.3594 104.612 37.5799 105.62 37.5799C105.967 37.5799 106.376 37.5484 106.817 37.4854C107.258 37.4224 107.699 37.3279 108.077 37.1704C108.487 37.0129 108.802 36.7924 109.054 36.4774C109.306 36.1624 109.432 35.7844 109.4 35.3119C109.369 34.8394 109.211 34.4299 108.865 34.1149C108.518 33.7999 108.109 33.5794 107.605 33.3589C107.101 33.1699 106.502 33.0124 105.841 32.8864C105.179 32.7604 104.518 32.6029 103.825 32.4454C103.132 32.2879 102.439 32.0989 101.777 31.8784C101.116 31.6579 100.549 31.3744 100.013 30.9649C99.509 30.5869 99.068 30.1144 98.7845 29.5159C98.4695 28.9174 98.312 28.2244 98.312 27.3424C98.312 26.3974 98.5325 25.6414 99.005 25.0114C99.446 24.3814 100.045 23.8774 100.738 23.4994C101.431 23.1214 102.218 22.8379 103.069 22.6804C103.919 22.5229 104.738 22.4599 105.494 22.4599C106.376 22.4599 107.227 22.5544 108.014 22.7434C108.802 22.9324 109.558 23.2159 110.188 23.6569C110.849 24.0664 111.385 24.6334 111.794 25.2949C112.235 25.9564 112.487 26.7754 112.613 27.7204H108.676C108.487 26.8069 108.077 26.2084 107.447 25.8934C106.786 25.5784 106.061 25.4209 105.211 25.4209C104.959 25.4209 104.612 25.4524 104.266 25.4839C103.888 25.5469 103.573 25.6099 103.226 25.7359C102.911 25.8619 102.628 26.0509 102.407 26.2714C102.187 26.4919 102.061 26.8069 102.061 27.1849C102.061 27.6574 102.218 28.0039 102.533 28.2874C102.848 28.5709 103.258 28.7914 103.793 29.0119C104.297 29.2009 104.896 29.3584 105.557 29.4844C106.219 29.6104 106.912 29.7679 107.605 29.9254C108.298 30.0829 108.959 30.2719 109.621 30.4924C110.282 30.7129 110.881 30.9964 111.385 31.4059C111.889 31.7839 112.33 32.2564 112.645 32.8234C112.96 33.3904 113.117 34.1149 113.117 34.9339C113.117 35.9419 112.897 36.7924 112.424 37.5169C111.952 38.2099 111.353 38.8084 110.629 39.2494C109.904 39.6904 109.054 40.0054 108.172 40.2259C107.258 40.4149 106.376 40.5409 105.494 40.5409C104.423 40.5409 103.415 40.4149 102.502 40.1629C101.588 39.9109 100.769 39.5329 100.108 39.0604C99.446 38.5564 98.9105 37.9579 98.5325 37.2019C98.1545 36.4774 97.934 35.5954 97.9025 34.5559H101.714V34.5874H101.746ZM114.188 22.9639H117.055V17.7979H120.835V22.9324H124.237V25.7359H120.835V34.8709C120.835 35.2804 120.866 35.5954 120.898 35.9104C120.929 36.1939 121.024 36.4459 121.118 36.6349C121.244 36.8239 121.433 36.9814 121.654 37.0759C121.906 37.1704 122.221 37.2334 122.662 37.2334C122.914 37.2334 123.197 37.2334 123.449 37.2019C123.701 37.1704 123.985 37.1389 124.237 37.0759V40.0054C123.827 40.0684 123.418 40.0999 123.008 40.1314C122.599 40.1944 122.221 40.1944 121.78 40.1944C120.772 40.1944 119.984 40.0999 119.386 39.9109C118.787 39.7219 118.315 39.4384 117.968 39.0919C117.622 38.7139 117.401 38.2729 117.275 37.7374C117.149 37.2019 117.086 36.5404 117.055 35.8474V25.7674H114.188V22.9009V22.9639ZM126.883 22.9639H130.442V25.2949H130.505C131.041 24.2869 131.765 23.5939 132.71 23.1529C133.655 22.7119 134.663 22.4914 135.797 22.4914C137.152 22.4914 138.317 22.7119 139.325 23.2159C140.333 23.6884 141.152 24.3184 141.814 25.1689C142.475 25.9879 142.979 26.9644 143.294 28.0669C143.609 29.1694 143.798 30.3664 143.798 31.5949C143.798 32.7604 143.641 33.8629 143.357 34.9339C143.042 36.0049 142.601 36.9814 142.003 37.8004C141.404 38.6194 140.648 39.2809 139.703 39.7849C138.758 40.2889 137.687 40.5409 136.427 40.5409C135.892 40.5409 135.325 40.4779 134.789 40.3834C134.254 40.2889 133.718 40.1314 133.214 39.9109C132.71 39.6904 132.238 39.4069 131.828 39.0604C131.387 38.7139 131.041 38.3044 130.757 37.8634H130.694V46.3999H126.914V22.9639H126.883ZM140.081 31.5319C140.081 30.7759 139.987 30.0199 139.766 29.2954C139.577 28.5709 139.262 27.9409 138.853 27.3739C138.443 26.8069 137.939 26.3659 137.372 26.0194C136.774 25.6729 136.081 25.5154 135.325 25.5154C133.75 25.5154 132.553 26.0509 131.734 27.1534C130.946 28.2559 130.537 29.7364 130.537 31.5634C130.537 32.4454 130.631 33.2329 130.852 33.9574C131.072 34.6819 131.356 35.3119 131.797 35.8474C132.206 36.3829 132.71 36.7924 133.309 37.1074C133.907 37.4224 134.569 37.5799 135.356 37.5799C136.238 37.5799 136.931 37.3909 137.53 37.0444C138.128 36.6979 138.601 36.2254 139.01 35.6899C139.388 35.1229 139.672 34.4929 139.829 33.7684C139.987 33.0124 140.081 32.2879 140.081 31.5319ZM146.728 16.4434H150.508V20.0029H146.728V16.4434ZM146.728 22.9639H150.508V40.0684H146.728V22.9639ZM153.878 16.4434H157.658V40.0684H153.878V16.4434ZM169.187 40.5409C167.833 40.5409 166.604 40.3204 165.533 39.8479C164.462 39.3754 163.58 38.7769 162.824 37.9894C162.1 37.2019 161.533 36.2254 161.155 35.1229C160.777 34.0204 160.556 32.7919 160.556 31.5004C160.556 30.2089 160.745 29.0119 161.155 27.9094C161.533 26.8069 162.1 25.8619 162.824 25.0429C163.549 24.2554 164.462 23.6254 165.533 23.1844C166.604 22.7434 167.833 22.4914 169.187 22.4914C170.542 22.4914 171.77 22.7119 172.841 23.1844C173.912 23.6254 174.794 24.2554 175.55 25.0429C176.275 25.8304 176.842 26.8069 177.22 27.9094C177.598 29.0119 177.818 30.2089 177.818 31.5004C177.818 32.8234 177.629 34.0204 177.22 35.1229C176.81 36.2254 176.275 37.1704 175.55 37.9894C174.826 38.7769 173.912 39.4069 172.841 39.8479C171.77 40.2889 170.573 40.5409 169.187 40.5409ZM169.187 37.5484C170.006 37.5484 170.762 37.3594 171.361 37.0129C171.991 36.6664 172.463 36.1939 172.873 35.6269C173.282 35.0599 173.566 34.3984 173.755 33.7054C173.944 32.9809 174.038 32.2564 174.038 31.5004C174.038 30.7759 173.944 30.0514 173.755 29.3269C173.566 28.6024 173.282 27.9724 172.873 27.4054C172.463 26.8384 171.959 26.3974 171.361 26.0509C170.731 25.7044 170.006 25.5154 169.187 25.5154C168.368 25.5154 167.612 25.7044 167.014 26.0509C166.384 26.3974 165.911 26.8699 165.502 27.4054C165.092 27.9724 164.809 28.6024 164.62 29.3269C164.431 30.0514 164.336 30.7759 164.336 31.5004C164.336 32.2564 164.431 32.9809 164.62 33.7054C164.809 34.4299 165.092 35.0599 165.502 35.6269C165.911 36.1939 166.415 36.6664 167.014 37.0129C167.644 37.3909 168.368 37.5484 169.187 37.5484ZM178.952 22.9639H181.819V17.7979H185.599V22.9324H189.001V25.7359H185.599V34.8709C185.599 35.2804 185.63 35.5954 185.662 35.9104C185.693 36.1939 185.788 36.4459 185.882 36.6349C186.008 36.8239 186.197 36.9814 186.418 37.0759C186.67 37.1704 186.985 37.2334 187.426 37.2334C187.678 37.2334 187.961 37.2334 188.213 37.2019C188.465 37.1704 188.749 37.1389 189.001 37.0759V40.0054C188.591 40.0684 188.182 40.0999 187.772 40.1314C187.363 40.1944 186.985 40.1944 186.544 40.1944C185.536 40.1944 184.748 40.0999 184.15 39.9109C183.551 39.7219 183.079 39.4384 182.732 39.0919C182.386 38.7139 182.165 38.2729 182.039 37.7374C181.913 37.2019 181.85 36.5404 181.819 35.8474V25.7674H178.952V22.9009V22.9639Z" fill="black"/>
<path d="M45.2655 16.443H27.972L22.6485 0L17.2935 16.443L0 16.4115L13.986 26.586L8.631 43.029L22.617 32.8545L36.603 43.029L31.2795 26.586L45.2655 16.443Z" fill="#00B67A"/>
<path d="M32.4764 30.3029L31.2794 26.5859L22.6484 32.8544L32.4764 30.3029Z" fill="#005128"/>
</svg>
